<?xml version="1.0" standalone="no"?><!DOCTYPE svg PUBLIC "-//W3C//DTD SVG 1.1//EN" "http://www.w3.org/Graphics/SVG/1.1/DTD/svg11.dtd"><svg t="1709019379959" class="icon" viewBox="0 0 1024 1024" version="1.1" xmlns="http://www.w3.org/2000/svg" p-id="2402" data-darkreader-inline-fill="" xmlns:xlink="http://www.w3.org/1999/xlink" width="200" height="200"><path d="M512.2 511.7c123.7 0 223.9-100.2 223.9-223.9S635.9 63.9 512.2 63.9 288.3 164.1 288.3 287.8s100.2 223.9 223.9 223.9zM668.9 567.6h-29.3c-38.8 17.9-82.1 28-127.6 28s-88.6-10.1-127.6-28h-29.3C225.3 567.6 120 673 120 802.8v72.8c0 46.4 37.6 83.9 83.9 83.9h615.8c46.4 0 83.9-37.6 83.9-83.9v-72.8C904 673 798.7 567.6 668.9 567.6z" p-id="2403"></path></svg>