<?xml version="1.0" standalone="no"?><!DOCTYPE svg PUBLIC "-//W3C//DTD SVG 1.1//EN" "http://www.w3.org/Graphics/SVG/1.1/DTD/svg11.dtd"><svg t="1709017268240" class="icon" viewBox="0 0 1024 1024" version="1.1" xmlns="http://www.w3.org/2000/svg" p-id="968" data-darkreader-inline-fill="" xmlns:xlink="http://www.w3.org/1999/xlink" width="200" height="200"><path d="M506.507636 356.227879a124.121212 124.121212 0 1 0 0 248.242424 124.121212 124.121212 0 0 0 0-248.242424z m-186.181818 124.121212a186.181818 186.181818 0 1 1 372.363637 0 186.181818 186.181818 0 0 1-372.363637 0z" fill="#303133" p-id="969" style="--darkreader-inline-fill: #25282a;" data-darkreader-inline-fill=""></path><path d="M103.113697 232.106667a62.060606 62.060606 0 0 1 62.060606-62.060606h682.666667a62.060606 62.060606 0 0 1 62.060606 62.060606v558.545454a62.060606 62.060606 0 0 1-62.060606 62.060606h-682.666667a62.060606 62.060606 0 0 1-62.060606-62.060606v-558.545454z m744.727273 0h-682.666667v558.545454h682.666667v-558.545454z" fill="#303133" p-id="970" style="--darkreader-inline-fill: #25282a;" data-darkreader-inline-fill=""></path><path d="M506.507636 666.530909a248.366545 248.366545 0 0 0-234.123636 165.484606 31.030303 31.030303 0 1 1-58.492121-20.697212 310.427152 310.427152 0 0 1 585.231515 0 31.030303 31.030303 0 0 1-58.492121 20.697212 248.366545 248.366545 0 0 0-234.123637-165.484606z" fill="#303133" p-id="971" style="--darkreader-inline-fill: #25282a;" data-darkreader-inline-fill=""></path></svg>